<svg width="281" height="291" viewBox="0 0 281 291" fill="none" xmlns="http://www.w3.org/2000/svg">
<path fill-rule="evenodd" clip-rule="evenodd" d="M279 145.501L278.992 146.246L278.969 146.99L278.931 147.735L278.877 148.479L278.808 149.222L278.723 149.964L278.624 150.705L278.508 151.444L278.378 152.182L278.232 152.919L278.072 153.653L277.896 154.386L277.705 155.116L277.498 155.843L277.277 156.568L277.041 157.29L276.79 158.009L276.524 158.724L276.243 159.437L275.948 160.145L275.638 160.85L275.313 161.551L274.974 162.248L274.62 162.94L274.252 163.628L273.87 164.312L273.474 164.99L273.063 165.663L272.639 166.332L272.201 166.994L271.749 167.652L271.283 168.303L270.804 168.949L270.311 169.589L269.805 170.222L269.286 170.85L268.753 171.47L268.208 172.084L267.65 172.692L267.079 173.292L266.496 173.885L265.9 174.471L265.292 175.05L264.672 175.621L264.039 176.184L263.395 176.74L262.739 177.287L262.072 177.827L261.393 178.358L260.703 178.881L260.002 179.396L259.29 179.902L258.567 180.399L257.834 180.888L257.09 181.368L256.336 181.838L255.572 182.3L254.798 182.752L254.015 183.195L253.222 183.628L252.419 184.052L251.607 184.466L250.787 184.871L249.957 185.266L249.119 185.65L248.273 186.025L247.418 186.39L246.555 186.745L245.685 187.089L244.806 187.424L243.921 187.748L243.028 188.061L242.128 188.364L241.221 188.657L240.308 188.939L239.388 189.211L238.462 189.472L237.53 189.722L236.592 189.961L235.648 190.19L234.7 190.408L233.746 190.615L232.787 190.811L231.823 190.997L230.854 191.171L229.882 191.335L228.905 191.488L227.924 191.63L226.94 191.76L225.952 191.881L224.961 191.99L223.967 192.088L222.97 192.175L221.97 192.252L220.968 192.317L219.964 192.372L218.958 192.416L217.95 192.449L216.94 192.471L215.929 192.483L214.917 192.484L213.904 192.474L212.891 192.454L211.876 192.423L210.862 192.382L209.847 192.33L208.833 192.268L207.819 192.195L206.805 192.112L205.792 192.019L204.78 191.916L203.77 191.803L202.76 191.68L201.753 191.547L200.746 191.404L199.742 191.251L198.74 191.089L197.741 190.917L196.744 190.735L195.749 190.545L194.758 190.345L193.77 190.136L192.785 189.918L191.803 189.69L190.825 189.455L189.851 189.21L188.881 188.957L187.915 188.695L186.954 188.425L185.997 188.147L185.045 187.861L184.098 187.566L183.156 187.264L182.219 186.954L181.287 186.637L180.361 186.312L179.441 185.98L178.527 185.641L177.619 185.295L176.716 184.942L175.821 184.583L174.931 184.217L174.049 183.844L173.173 183.466L172.304 183.081L171.442 182.691L170.587 182.295L169.739 181.893L168.899 181.486L168.066 181.074L167.241 180.657L166.424 180.235L165.615 179.808L164.813 179.377L164.02 178.941L163.235 178.501L162.459 178.058L161.69 177.611L160.931 177.16L160.18 176.705L159.437 176.248L158.704 175.787L157.979 175.324L157.263 174.858L156.556 174.389L155.859 173.919L155.17 173.446L154.491 172.971L153.821 172.495L153.16 172.017L152.509 171.538L151.868 171.058L151.235 170.577L150.613 170.095L150 169.613L149.396 169.13L148.803 168.648L148.219 168.165L147.645 167.683L147.08 167.201L146.526 166.72L145.981 166.239L145.446 165.76L144.921 165.282L144.406 164.806L143.9 164.331L143.405 163.858L142.919 163.387L142.444 162.919L141.978 162.453L141.522 161.989L141.075 161.528L140.639 161.071L140.212 160.616L139.795 160.165L139.388 159.718L138.991 159.274L138.603 158.834L138.224 158.399L137.856 157.967L137.497 157.541L137.147 157.119L136.807 156.702L136.476 156.29L136.155 155.883L135.843 155.482L135.54 155.086L135.246 154.696L134.961 154.312L134.685 153.934L134.418 153.562L134.16 153.197L133.911 152.838L133.671 152.487L133.438 152.142L133.215 151.804L133 151.473L132.793 151.15L132.594 150.835L132.404 150.527L132.221 150.227L132.046 149.935L131.88 149.651L131.72 149.375L131.569 149.108L131.424 148.849L131.287 148.599L131.158 148.358L131.035 148.126L130.919 147.903L130.81 147.689L130.708 147.484L130.612 147.289L130.523 147.103L130.44 146.927L130.363 146.761L130.292 146.605L130.227 146.458L130.167 146.322L130.113 146.195L130.065 146.079L130.022 145.974L129.984 145.879L129.95 145.794L129.922 145.72L129.898 145.656L129.879 145.603L129.864 145.561L129.853 145.53L129.846 145.51L129.843 145.501L129.844 145.503L129.848 145.516L129.855 145.54L129.866 145.576L129.879 145.622L129.896 145.68L129.915 145.749L129.936 145.83L129.96 145.922L129.986 146.025L130.014 146.14L130.043 146.266L130.075 146.404L130.107 146.553L130.141 146.714L130.176 146.886L130.212 147.07L130.249 147.265L130.286 147.472L130.323 147.69L130.361 147.919L130.399 148.16L130.436 148.413L130.474 148.677L130.51 148.952L130.546 149.239L130.581 149.536L130.616 149.846L130.648 150.166L130.68 150.497L130.71 150.84L130.738 151.194L130.764 151.559L130.789 151.934L130.811 152.321L130.83 152.719L130.847 153.127L130.861 153.546L130.873 153.975L130.881 154.415L130.886 154.866L130.888 155.327L130.886 155.798L130.88 156.28L130.87 156.771L130.856 157.273L130.839 157.784L130.816 158.305L130.79 158.836L130.758 159.377L130.722 159.927L130.681 160.486L130.635 161.054L130.583 161.632L130.526 162.218L130.464 162.814L130.395 163.418L130.322 164.031L130.242 164.652L130.156 165.281L130.064 165.919L129.965 166.564L129.86 167.218L129.749 167.879L129.631 168.547L129.506 169.224L129.374 169.907L129.235 170.597L129.089 171.295L128.935 171.999L128.775 172.709L128.607 173.427L128.431 174.15L128.247 174.879L128.056 175.615L127.857 176.356L127.65 177.102L127.435 177.854L127.212 178.611L126.981 179.373L126.742 180.14L126.494 180.912L126.238 181.688L125.973 182.468L125.7 183.252L125.418 184.04L125.128 184.832L124.828 185.627L124.52 186.426L124.204 187.227L123.878 188.031L123.544 188.838L123.2 189.648L122.848 190.459L122.486 191.273L122.116 192.089L121.736 192.906L121.348 193.724L120.95 194.544L120.543 195.365L120.127 196.186L119.702 197.009L119.268 197.831L118.825 198.654L118.372 199.476L117.91 200.299L117.439 201.121L116.959 201.942L116.47 202.762L115.972 203.581L115.465 204.399L114.949 205.215L114.423 206.03L113.889 206.843L113.346 207.653L112.793 208.461L112.232 209.267L111.662 210.069L111.084 210.869L110.496 211.666L109.9 212.459L109.295 213.248L108.682 214.034L108.06 214.815L107.43 215.593L106.791 216.365L106.144 217.134L105.489 217.897L104.826 218.655L104.155 219.408L103.475 220.156L102.788 220.898L102.093 221.634L101.391 222.364L100.68 223.088L99.9628 223.805L99.2377 224.516L98.5054 225.22L97.7659 225.917L97.0194 226.607L96.2659 227.29L95.5057 227.965L94.7387 228.632L93.9652 229.292L93.1852 229.943L92.399 230.586L91.6066 231.221L90.8081 231.847L90.0037 232.465L89.1936 233.073L88.3779 233.673L87.5567 234.263L86.7302 234.844L85.8985 235.415L85.0618 235.977L84.2202 236.529L83.3739 237.071L82.5231 237.603L81.6679 238.124L80.8085 238.636L79.9451 239.136L79.0777 239.626L78.2066 240.105L77.332 240.574L76.454 241.031L75.5729 241.477L74.6887 241.912L73.8016 242.335L72.9119 242.747L72.0198 243.148L71.1253 243.536L70.2287 243.913L69.3303 244.278L68.43 244.631L67.5283 244.971L66.6252 245.3L65.7209 245.616L64.8156 245.92L63.9096 246.211L63.003 246.49L62.096 246.756L61.1889 247.01L60.2817 247.251L59.3748 247.479L58.4683 247.694L57.5623 247.896L56.6572 248.086L55.7531 248.262L54.8502 248.425L53.9488 248.575L53.0489 248.712L52.1509 248.836L51.2549 248.946L50.3612 249.044L49.4698 249.128L48.5811 249.198L47.6953 249.256L46.8125 249.3L45.9329 249.331L45.0568 249.348L44.1843 249.352L43.3157 249.343L42.4512 249.32L41.5909 249.285L40.7351 249.235L39.884 249.173L39.0377 249.097L38.1965 249.008L37.3606 248.905L36.5301 248.79L35.7053 248.661L34.8863 248.519L34.0734 248.364L33.2668 248.196L32.4666 248.015L31.673 247.821L30.8863 247.614L30.1065 247.394L29.334 247.162L28.5689 246.916L27.8114 246.658L27.0616 246.387L26.3198 246.104L25.5861 245.809L24.8607 245.5L24.1439 245.18L23.4356 244.848L22.7363 244.503L22.0459 244.146L21.3647 243.778L20.6929 243.397L20.0306 243.005L19.378 242.601L18.7353 242.186L18.1025 241.759L17.4799 241.321L16.8677 240.872L16.2659 240.411L15.6748 239.94L15.0944 239.458L14.525 238.965L13.9666 238.462L13.4195 237.948L12.8837 237.424L12.3594 236.89L11.8467 236.345L11.3458 235.791L10.8567 235.227L10.3797 234.654L9.91477 234.071L9.46212 233.479L9.02184 232.877L8.59404 232.267L8.17883 231.648L7.77633 231.02L7.38664 230.384L7.00985 229.739L6.64607 229.086L6.2954 228.425L5.95792 227.757L5.63373 227.081L5.32292 226.397L5.02556 225.706L4.74173 225.007L4.47151 224.302L4.21498 223.59L3.97221 222.872L3.74325 222.147L3.52818 221.416L3.32705 220.678L3.13992 219.935L2.96684 219.187L2.80786 218.432L2.66303 217.673L2.53238 216.908L2.41596 216.139L2.31381 215.365L2.22594 214.586L2.1524 213.803L2.09321 213.016L2.04838 212.224L2.01793 211.43L2.00188 210.631L2.00024 209.829L2.01301 209.024L2.0402 208.217L2.08181 207.406L2.13782 206.593L2.20824 205.777L2.29305 204.959L2.39224 204.14L2.50578 203.318L2.63366 202.495L2.77585 201.671L2.93232 200.845L3.10303 200.019L3.28795 199.192L3.48704 198.364L3.70026 197.535L3.92755 196.707L4.16887 195.879L4.42416 195.05L4.69336 194.223L4.97641 193.395L5.27326 192.569L5.58382 191.743L5.90802 190.919L6.2458 190.096L6.59707 189.275L6.96175 188.455L7.33975 187.637L7.73099 186.822L8.13538 186.008L8.55281 185.197L8.98319 184.389L9.42642 183.584L9.88239 182.781L10.351 181.982L10.8321 181.186L11.3257 180.394L11.8315 179.605L12.3495 178.82L12.8795 178.039L13.4215 177.263L13.9753 176.491L14.5407 175.723L15.1176 174.96L15.7059 174.202L16.3055 173.449L16.9161 172.701L17.5378 171.959L18.1702 171.221L18.8133 170.49L19.4668 169.764L20.1307 169.044L20.8048 168.33L21.489 167.623L22.1829 166.921L22.8866 166.226L23.5998 165.538L24.3223 164.857L25.054 164.182L25.7947 163.514L26.5443 162.853L27.3024 162.199L28.0691 161.553L28.844 160.914L29.627 160.283L30.418 159.659L31.2166 159.043L32.0228 158.435L32.8363 157.835L33.657 157.242L34.4845 156.658L35.3189 156.082L36.1598 155.514L37.007 154.955L37.8604 154.404L38.7198 153.862L39.5848 153.328L40.4555 152.803L41.3314 152.286L42.2125 151.779L43.0985 151.28L43.9892 150.79L44.8844 150.309L45.7839 149.837L46.6874 149.374L47.5948 148.92L48.5059 148.475L49.4204 148.04L50.3381 147.613L51.2589 147.196L52.1824 146.788L53.1085 146.389L54.037 146L54.9676 145.62L55.9002 145.249L56.8344 144.887L57.7702 144.535L58.7073 144.192L59.6454 143.859L60.5844 143.534L61.524 143.22L62.4641 142.914L63.4044 142.618L64.3446 142.331L65.2847 142.053L66.2243 141.784L67.1633 141.525L68.1014 141.275L69.0385 141.033L69.9743 140.801L70.9086 140.578L71.8412 140.364L72.7719 140.159L73.7006 139.963L74.6269 139.776L75.5507 139.598L76.4718 139.428L77.3899 139.267L78.305 139.114L79.2167 138.97L80.1249 138.835L81.0294 138.708L81.93 138.589L82.8266 138.478L83.7188 138.376L84.6065 138.281L85.4896 138.195L86.3678 138.116L87.241 138.045L88.109 137.982L88.9716 137.927L89.8286 137.879L90.6799 137.838L91.5252 137.804L92.3644 137.778L93.1974 137.758L94.024 137.746L94.8439 137.74L95.6571 137.741L96.4634 137.749L97.2626 137.763L98.0545 137.783L98.8391 137.809L99.6162 137.841L100.386 137.879L101.147 137.923L101.901 137.973L102.646 138.028L103.383 138.088L104.112 138.153L104.833 138.224L105.544 138.299L106.247 138.379L106.941 138.463L107.626 138.552L108.302 138.645L108.969 138.742L109.626 138.843L110.274 138.948L110.913 139.057L111.542 139.168L112.161 139.283L112.77 139.402L113.369 139.523L113.958 139.647L114.537 139.773L115.106 139.902L115.665 140.033L116.213 140.166L116.751 140.301L117.279 140.438L117.796 140.576L118.302 140.715L118.798 140.856L119.283 140.998L119.757 141.14L120.22 141.283L120.673 141.427L121.115 141.571L121.546 141.715L121.965 141.859L122.374 142.002L122.772 142.146L123.159 142.288L123.535 142.43L123.899 142.57L124.253 142.71L124.596 142.848L124.927 142.985L125.248 143.12L125.557 143.253L125.855 143.384L126.142 143.512L126.418 143.639L126.684 143.762L126.938 143.883L127.181 144.001L127.413 144.116L127.634 144.227L127.844 144.335L128.044 144.439L128.232 144.539L128.41 144.636L128.577 144.728L128.734 144.816L128.879 144.899L129.015 144.978L129.139 145.051L129.254 145.12L129.357 145.184L129.451 145.242L129.534 145.295L129.608 145.342L129.671 145.383L129.724 145.419L129.767 145.448L129.801 145.471L129.824 145.487L129.838 145.497L129.843 145.501L129.838 145.497L129.824 145.486L129.801 145.469L129.768 145.444L129.727 145.411L129.676 145.372L129.617 145.324L129.549 145.269L129.473 145.206L129.388 145.134L129.295 145.055L129.194 144.967L129.085 144.871L128.968 144.767L128.844 144.654L128.712 144.532L128.572 144.402L128.425 144.262L128.271 144.114L128.11 143.956L127.942 143.789L127.767 143.613L127.586 143.428L127.399 143.233L127.205 143.028L127.005 142.814L126.799 142.591L126.588 142.357L126.371 142.114L126.148 141.861L125.921 141.598L125.688 141.325L125.451 141.042L125.208 140.748L124.961 140.445L124.71 140.131L124.455 139.807L124.196 139.473L123.932 139.129L123.665 138.774L123.395 138.409L123.122 138.033L122.845 137.647L122.565 137.251L122.283 136.844L121.998 136.427L121.711 135.999L121.421 135.56L121.13 135.111L120.837 134.652L120.542 134.182L120.246 133.702L119.948 133.211L119.65 132.71L119.351 132.199L119.051 131.677L118.75 131.145L118.449 130.602L118.149 130.049L117.848 129.486L117.547 128.912L117.247 128.329L116.948 127.735L116.65 127.131L116.352 126.517L116.056 125.894L115.761 125.26L115.468 124.616L115.176 123.963L114.887 123.3L114.599 122.627L114.314 121.945L114.032 121.254L113.752 120.553L113.475 119.842L113.201 119.123L112.93 118.394L112.663 117.656L112.399 116.91L112.139 116.155L111.883 115.391L111.631 114.618L111.383 113.837L111.14 113.047L110.901 112.25L110.667 111.444L110.438 110.63L110.214 109.808L109.995 108.979L109.782 108.142L109.574 107.297L109.372 106.446L109.175 105.587L108.985 104.721L108.801 103.848L108.623 102.968L108.451 102.082L108.286 101.189L108.128 100.291L107.977 99.3855L107.832 98.4746L107.695 97.5579L107.565 96.6355L107.442 95.7077L107.327 94.7747L107.219 93.8365L107.119 92.8935L107.027 91.9456L106.943 90.9933L106.866 90.0365L106.798 89.0755L106.739 88.1106L106.687 87.1418L106.644 86.1694L106.61 85.1935L106.584 84.2144L106.567 83.2322L106.559 82.2472L106.56 81.2595L106.57 80.2693L106.589 79.2769L106.617 78.2825L106.654 77.2861L106.7 76.2881L106.756 75.2887L106.821 74.288L106.896 73.2863L106.98 72.2838L107.074 71.2807L107.177 70.2771L107.29 69.2734L107.413 68.2697L107.545 67.2662L107.687 66.2631L107.84 65.2607L108.001 64.2592L108.173 63.2588L108.355 62.2597L108.546 61.2621L108.748 60.2662L108.959 59.2723L109.181 58.2805L109.412 57.2911L109.653 56.3043L109.904 55.3203L110.165 54.3394L110.436 53.3617L110.717 52.3874L111.008 51.4169L111.309 50.4502L111.62 49.4876L111.94 48.5293L112.27 47.5756L112.61 46.6266L112.96 45.6825L113.319 44.7437L113.689 43.8102L114.067 42.8822L114.456 41.9601L114.853 41.044L115.261 40.1341L115.677 39.2306L116.103 38.3337L116.538 37.4436L116.983 36.5606L117.436 35.6848L117.899 34.8164L118.371 33.9556L118.851 33.1026L119.34 32.2577L119.838 31.4209L120.345 30.5926L120.86 29.7728L121.384 28.9618L121.916 28.1597L122.456 27.3668L123.004 26.5833L123.56 25.8092L124.125 25.0448L124.697 24.2903L125.277 23.5458L125.864 22.8115L126.459 22.0875L127.061 21.3741L127.67 20.6714L128.286 19.9796L128.91 19.2988L129.54 18.6292L130.176 17.9709L130.82 17.3242L131.469 16.689L132.125 16.0657L132.787 15.4542L133.455 14.8549L134.128 14.2677L134.808 13.6929L135.492 13.1306L136.182 12.5809L136.878 12.044L137.578 11.5199L138.283 11.0087L138.993 10.5107L139.707 10.0259L140.426 9.55442L141.148 9.09638L141.875 8.65188L142.606 8.22102L143.34 7.8039L144.078 7.40063L144.819 7.01128L145.563 6.63596L146.31 6.27475L147.059 5.92772L147.812 5.59496L148.567 5.27654L149.323 4.97254L150.082 4.68303L150.843 4.40807L151.606 4.14771L152.369 3.90203L153.135 3.67107L153.901 3.45489L154.668 3.25354L155.436 3.06705L156.204 2.89547L156.972 2.73883L157.741 2.59717L158.509 2.47053L159.278 2.35891L160.045 2.26235L160.813 2.18087L161.579 2.11448L162.344 2.06319L163.108 2.02701L163.87 2.00595L164.631 2L165.39 2.00916L166.147 2.03343L166.902 2.07279L167.654 2.12724L168.404 2.19674L169.151 2.28129L169.895 2.38086L170.636 2.49541L171.373 2.62492L172.107 2.76935L172.837 2.92867L173.563 3.10282L174.285 3.29176L175.002 3.49545L175.715 3.71383L176.424 3.94684L177.127 4.19442L177.825 4.45651L178.519 4.73304L179.206 5.02395L179.889 5.32914L180.565 5.64856L181.235 5.98212L181.9 6.32972L182.558 6.6913L183.209 7.06675L183.854 7.45598L184.492 7.85889L185.123 8.27539L185.747 8.70537L186.364 9.14872L186.973 9.60534L187.574 10.0751L188.168 10.5579L188.754 11.0536L189.332 11.5621L189.901 12.0833L190.462 12.617L191.015 13.1632L191.559 13.7216L192.094 14.2921L192.62 14.8747L193.137 15.4691L193.645 16.0752L194.144 16.6929L194.633 17.3221L195.112 17.9625L195.582 18.614L196.042 19.2764L196.492 19.9497L196.931 20.6336L197.361 21.328L197.78 22.0327L198.189 22.7475L198.588 23.4723L198.975 24.2069L199.352 24.9511L199.719 25.7048L200.074 26.4677L200.418 27.2397L200.752 28.0207L201.074 28.8103L201.385 29.6085L201.685 30.4151L201.973 31.2298L202.25 32.0525L202.515 32.8829L202.769 33.721L203.011 34.5665L203.241 35.4191L203.46 36.2788L203.667 37.1452L203.862 38.0183L204.045 38.8978L204.216 39.7834L204.375 40.6751L204.523 41.5726L204.658 42.4756L204.781 43.3841L204.892 44.2978L204.991 45.2164L205.078 46.1398L205.153 47.0677L205.216 48L205.266 48.9365L205.305 49.8769L205.331 50.8211L205.345 51.7687L205.348 52.7197L205.338 53.6738L205.316 54.6308L205.282 55.5904L205.235 56.5526L205.177 57.517L205.107 58.4835L205.025 59.4518L204.931 60.4218L204.825 61.3932L204.708 62.3658L204.578 63.3395L204.437 64.314L204.284 65.2891L204.12 66.2646L203.944 67.2403L203.757 68.216L203.558 69.1914L203.347 70.1665L203.126 71.141L202.893 72.1147L202.649 73.0874L202.395 74.0589L202.129 75.0289L201.852 75.9974L201.565 76.9641L201.267 77.9289L200.958 78.8914L200.639 79.8517L200.31 80.8093L199.97 81.7643L199.62 82.7163L199.261 83.6652L198.891 84.6109L198.512 85.5531L198.122 86.4917L197.724 87.4264L197.316 88.3572L196.899 89.2839L196.472 90.2062L196.037 91.124L195.592 92.0372L195.14 92.9456L194.678 93.849L194.208 94.7472L193.73 95.6402L193.244 96.5277L192.749 97.4097L192.247 98.2859L191.737 99.1562L191.22 100.021L190.696 100.879L190.164 101.73L189.625 102.576L189.08 103.415L188.528 104.247L187.969 105.072L187.404 105.89L186.833 106.701L186.256 107.505L185.674 108.302L185.085 109.091L184.492 109.873L183.893 110.647L183.289 111.414L182.68 112.172L182.067 112.923L181.449 113.665L180.827 114.4L180.201 115.126L179.571 115.844L178.938 116.553L178.301 117.254L177.66 117.947L177.017 118.631L176.371 119.306L175.722 119.972L175.07 120.63L174.417 121.279L173.761 121.919L173.103 122.549L172.444 123.171L171.784 123.784L171.122 124.388L170.459 124.982L169.795 125.567L169.13 126.144L168.465 126.71L167.8 127.268L167.135 127.816L166.47 128.355L165.806 128.885L165.142 129.405L164.479 129.916L163.817 130.418L163.156 130.91L162.496 131.393L161.838 131.866L161.182 132.33L160.528 132.785L159.877 133.231L159.227 133.667L158.581 134.094L157.937 134.512L157.296 134.92L156.658 135.32L156.024 135.71L155.393 136.091L154.767 136.463L154.144 136.826L153.525 137.18L152.911 137.525L152.301 137.861L151.697 138.188L151.097 138.507L150.502 138.817L149.913 139.118L149.329 139.411L148.75 139.695L148.178 139.971L147.611 140.238L147.051 140.498L146.497 140.749L145.95 140.992L145.41 141.227L144.876 141.454L144.349 141.673L143.83 141.885L143.318 142.089L142.813 142.286L142.316 142.475L141.827 142.657L141.346 142.832L140.873 142.999L140.409 143.16L139.952 143.314L139.505 143.462L139.066 143.602L138.636 143.737L138.214 143.864L137.802 143.986L137.399 144.102L137.006 144.212L136.622 144.316L136.247 144.414L135.882 144.507L135.527 144.595L135.182 144.677L134.847 144.754L134.522 144.827L134.207 144.894L133.903 144.957L133.609 145.016L133.325 145.07L133.052 145.12L132.79 145.166L132.538 145.208L132.298 145.247L132.068 145.282L131.849 145.313L131.641 145.342L131.444 145.367L131.259 145.39L131.084 145.41L130.921 145.427L130.77 145.442L130.629 145.455L130.5 145.466L130.383 145.474L130.277 145.482L130.182 145.488L130.099 145.492L130.028 145.495L129.968 145.498L129.92 145.499L129.883 145.5L129.859 145.5L129.845 145.5L129.844 145.501L129.854 145.501L129.875 145.501L129.909 145.502L129.954 145.503L130.01 145.505L130.079 145.508L130.158 145.512L130.25 145.518L130.353 145.524L130.467 145.533L130.593 145.543L130.73 145.555L130.879 145.57L131.039 145.586L131.21 145.606L131.392 145.627L131.586 145.652L131.791 145.68L132.007 145.71L132.233 145.744L132.471 145.782L132.72 145.823L132.979 145.868L133.249 145.917L133.53 145.97L133.821 146.027L134.123 146.089L134.435 146.155L134.757 146.226L135.089 146.302L135.432 146.383L135.784 146.469L136.146 146.561L136.518 146.658L136.9 146.76L137.291 146.868L137.691 146.982L138.101 147.103L138.519 147.229L138.947 147.361L139.384 147.5L139.829 147.646L140.283 147.798L140.745 147.957L141.216 148.123L141.695 148.295L142.182 148.475L142.676 148.663L143.179 148.857L143.689 149.059L144.206 149.269L144.731 149.486L145.263 149.711L145.801 149.944L146.347 150.185L146.899 150.434L147.457 150.691L148.022 150.956L148.593 151.229L149.169 151.511L149.752 151.802L150.34 152.101L150.933 152.408L151.532 152.724L152.135 153.049L152.744 153.383L153.356 153.726L153.974 154.077L154.596 154.438L155.221 154.807L155.851 155.186L156.484 155.573L157.121 155.97L157.761 156.376L158.404 156.791L159.05 157.216L159.698 157.65L160.349 158.093L161.003 158.545L161.658 159.007L162.316 159.477L162.975 159.958L163.635 160.447L164.297 160.947L164.96 161.455L165.624 161.973L166.288 162.5L166.953 163.036L167.618 163.582L168.283 164.137L168.948 164.701L169.613 165.275L170.277 165.857L170.94 166.449L171.602 167.051L172.263 167.661L172.923 168.28L173.581 168.909L174.237 169.546L174.892 170.192L175.544 170.848L176.193 171.512L176.84 172.184L177.484 172.866L178.126 173.556L178.764 174.255L179.398 174.962L180.029 175.677L180.656 176.401L181.279 177.134L181.898 177.874L182.513 178.622L183.123 179.379L183.728 180.143L184.328 180.915L184.923 181.694L185.513 182.482L186.097 183.276L186.676 184.078L187.248 184.888L187.815 185.704L188.375 186.527L188.929 187.358L189.476 188.195L190.017 189.038L190.551 189.888L191.077 190.745L191.596 191.607L192.108 192.476L192.612 193.351L193.109 194.231L193.597 195.117L194.078 196.008L194.55 196.905L195.014 197.807L195.469 198.714L195.916 199.626L196.354 200.543L196.783 201.464L197.202 202.389L197.613 203.319L198.014 204.253L198.406 205.19L198.788 206.131L199.16 207.076L199.523 208.024L199.875 208.975L200.218 209.93L200.55 210.887L200.872 211.846L201.183 212.808L201.484 213.772L201.775 214.738L202.054 215.706L202.323 216.676L202.581 217.647L202.828 218.62L203.063 219.593L203.288 220.567L203.501 221.542L203.703 222.518L203.894 223.493L204.073 224.469L204.24 225.445L204.396 226.42L204.541 227.394L204.673 228.368L204.794 229.341L204.903 230.313L205.001 231.283L205.086 232.252L205.159 233.219L205.221 234.184L205.27 235.147L205.307 236.107L205.333 237.065L205.346 238.02L205.347 238.972L205.336 239.921L205.313 240.866L205.278 241.807L205.231 242.745L205.171 243.678L205.1 244.607L205.016 245.532L204.921 246.452L204.813 247.367L204.693 248.277L204.561 249.181L204.417 250.08L204.261 250.974L204.093 251.861L203.913 252.742L203.721 253.617L203.518 254.485L203.302 255.347L203.075 256.202L202.836 257.049L202.586 257.889L202.323 258.722L202.05 259.546L201.765 260.363L201.468 261.172L201.16 261.973L200.841 262.765L200.511 263.548L200.17 264.323L199.817 265.088L199.454 265.844L199.08 266.591L198.695 267.328L198.299 268.056L197.893 268.773L197.477 269.481L197.05 270.178L196.613 270.865L196.166 271.541L195.709 272.207L195.242 272.861L194.765 273.505L194.279 274.137L193.783 274.758L193.277 275.367L192.763 275.965L192.239 276.55L191.707 277.124L191.165 277.686L190.615 278.236L190.056 278.773L189.489 279.297L188.913 279.809L188.33 280.309L187.738 280.795L187.139 281.268L186.531 281.728L185.917 282.175L185.295 282.609L184.666 283.029L184.03 283.436L183.387 283.829L182.737 284.208L182.081 284.574L181.418 284.925L180.749 285.262L180.075 285.586L179.394 285.895L178.708 286.19L178.016 286.47L177.319 286.736L176.617 286.988L175.91 287.225L175.198 287.447L174.482 287.655L173.761 287.848L173.036 288.026L172.307 288.189L171.574 288.338L170.838 288.472L170.098 288.59L169.355 288.694L168.609 288.783L167.86 288.856L167.108 288.915L166.354 288.958L165.598 288.987L164.84 289L164.079 288.998L163.317 288.981L162.554 288.949L161.789 288.902L161.023 288.84L160.256 288.762L159.488 288.67L158.72 288.563L157.952 288.44L157.183 288.303L156.414 288.15L155.646 287.982L154.878 287.8L154.111 287.603L153.344 287.391L152.579 287.164L151.815 286.922L151.052 286.666L150.291 286.395L149.531 286.109L148.774 285.809L148.018 285.495L147.265 285.166L146.515 284.823L145.767 284.465L145.022 284.094L144.28 283.708L143.542 283.309L142.807 282.896L142.075 282.469L141.347 282.028L140.623 281.573L139.904 281.106L139.188 280.625L138.477 280.13L137.771 279.623L137.069 279.102L136.373 278.569L135.681 278.022L134.995 277.463L134.314 276.892L133.639 276.308L132.969 275.712L132.306 275.104L131.648 274.484L130.997 273.852L130.352 273.209L129.713 272.553L129.082 271.887L128.456 271.209L127.838 270.52L127.227 269.821L126.623 269.11L126.026 268.389L125.437 267.658L124.855 266.916L124.281 266.164L123.714 265.402L123.156 264.631L122.605 263.85L122.063 263.06L121.529 262.26L121.003 261.451L120.485 260.634L119.976 259.808L119.476 258.974L118.984 258.131L118.501 257.28L118.027 256.421L117.562 255.555L117.106 254.681L116.659 253.8L116.222 252.912L115.793 252.017L115.374 251.115L114.964 250.207L114.564 249.293L114.173 248.372L113.791 247.446L113.42 246.514L113.058 245.576L112.705 244.634L112.362 243.686L112.03 242.734L111.706 241.777L111.393 240.815L111.09 239.85L110.796 238.88L110.512 237.907L110.239 236.93L109.975 235.95L109.721 234.967L109.477 233.981L109.243 232.992L109.019 232.001L108.805 231.007L108.601 230.012L108.406 229.015L108.222 228.016L108.048 227.016L107.883 226.015L107.728 225.013L107.583 224.01L107.448 223.006L107.323 222.003L107.207 220.999L107.101 219.995L107.005 218.992L106.918 217.989L106.841 216.987L106.773 215.987L106.714 214.987L106.665 213.988L106.626 212.991L106.595 211.997L106.574 211.004L106.562 210.013L106.559 209.024L106.564 208.039L106.579 207.056L106.602 206.076L106.634 205.099L106.675 204.125L106.724 203.156L106.781 202.19L106.847 201.228L106.921 200.27L107.003 199.316L107.093 198.367L107.191 197.423L107.296 196.483L107.409 195.549L107.53 194.619L107.658 193.695L107.794 192.777L107.936 191.865L108.086 190.958L108.242 190.057L108.405 189.163L108.575 188.275L108.751 187.394L108.934 186.519L109.122 185.651L109.317 184.79L109.518 183.936L109.724 183.09L109.936 182.251L110.153 181.419L110.376 180.596L110.604 179.78L110.836 178.971L111.074 178.172L111.316 177.38L111.563 176.596L111.814 175.821L112.069 175.055L112.328 174.297L112.59 173.548L112.857 172.808L113.127 172.077L113.4 171.355L113.676 170.642L113.955 169.939L114.237 169.244L114.521 168.56L114.808 167.884L115.097 167.219L115.388 166.563L115.68 165.916L115.975 165.28L116.271 164.654L116.568 164.037L116.866 163.43L117.165 162.834L117.465 162.248L117.765 161.671L118.066 161.105L118.367 160.55L118.668 160.004L118.968 159.469L119.268 158.944L119.568 158.43L119.867 157.926L120.164 157.432L120.461 156.949L120.756 156.477L121.05 156.014L121.342 155.563L121.632 155.121L121.92 154.691L122.205 154.27L122.488 153.861L122.769 153.461L123.046 153.073L123.32 152.694L123.592 152.326L123.86 151.968L124.124 151.621L124.384 151.284L124.641 150.957L124.893 150.641L125.141 150.335L125.385 150.039L125.623 149.753L125.858 149.477L126.087 149.211L126.31 148.955L126.529 148.709L126.742 148.473L126.949 148.247L127.151 148.03L127.346 147.823L127.535 147.626L127.718 147.438L127.895 147.259L128.064 147.09L128.227 146.93L128.383 146.779L128.532 146.637L128.674 146.504L128.808 146.38L128.935 146.264L129.054 146.157L129.165 146.059L129.268 145.969L129.364 145.888L129.451 145.814L129.529 145.749L129.599 145.691L129.661 145.642L129.714 145.6L129.758 145.565L129.793 145.538L129.818 145.519L129.835 145.506L129.843 145.501L129.841 145.502L129.829 145.51L129.808 145.525L129.777 145.546L129.737 145.574L129.686 145.608L129.626 145.647L129.555 145.693L129.475 145.744L129.384 145.801L129.283 145.863L129.172 145.93L129.05 146.003L128.917 146.08L128.775 146.162L128.621 146.249L128.457 146.34L128.282 146.435L128.096 146.534L127.9 146.637L127.693 146.744L127.475 146.855L127.245 146.968L127.005 147.085L126.754 147.205L126.492 147.328L126.219 147.454L125.935 147.582L125.64 147.712L125.333 147.845L125.016 147.979L124.688 148.115L124.348 148.253L123.998 148.392L123.636 148.533L123.263 148.674L122.879 148.816L122.484 148.959L122.079 149.103L121.662 149.247L121.234 149.391L120.795 149.535L120.346 149.678L119.885 149.822L119.414 149.964L118.932 150.106L118.439 150.247L117.936 150.387L117.422 150.526L116.897 150.663L116.362 150.798L115.816 150.932L115.26 151.064L114.694 151.193L114.118 151.32L113.532 151.445L112.935 151.567L112.329 151.685L111.712 151.801L111.086 151.914L110.45 152.024L109.805 152.129L109.15 152.231L108.486 152.33L107.813 152.424L107.13 152.514L106.438 152.6L105.738 152.681L105.029 152.757L104.311 152.829L103.584 152.896L102.849 152.957L102.106 153.014L101.354 153.065L100.595 153.11L99.8279 153.15L99.0529 153.184L98.2704 153.212L97.4804 153.234L96.6832 153.249L95.8788 153.258L95.0675 153.261L94.2494 153.257L93.4246 153.247L92.5934 153.229L91.7559 153.205L90.9122 153.173L90.0625 153.134L89.2071 153.088L88.346 153.035L87.4795 152.974L86.6077 152.905L85.7308 152.828L84.8491 152.744L83.9626 152.652L83.0716 152.552L82.1762 152.443L81.2767 152.327L80.3733 152.202L79.466 152.069L78.5552 151.927L77.6411 151.777L76.7238 151.618L75.8034 151.451L74.8804 151.275L73.9547 151.09L73.0267 150.896L72.0966 150.694L71.1644 150.482L70.2306 150.262L69.2951 150.032L68.3584 149.793L67.4205 149.546L66.4818 149.289L65.5423 149.023L64.6024 148.748L63.6621 148.463L62.7218 148.169L61.7817 147.866L60.8419 147.554L59.9027 147.232L58.9644 146.901L58.027 146.561L57.0908 146.211L56.1561 145.852L55.2231 145.484L54.2919 145.106L53.3628 144.719L52.436 144.323L51.5118 143.918L50.5902 143.503L49.6717 143.079L48.7563 142.646L47.8442 142.204L46.9358 141.752L46.0311 141.292L45.1305 140.822L44.2341 140.344L43.3422 139.856L42.4549 139.36L41.5724 138.855L40.6951 138.341L39.823 137.818L38.9563 137.286L38.0954 136.746L37.2404 136.198L36.3914 135.641L35.5488 135.075L34.7126 134.502L33.8831 133.92L33.0606 133.33L32.2451 132.731L31.4369 132.125L30.6361 131.512L29.8431 130.89L29.0579 130.261L28.2807 129.624L27.5118 128.979L26.7512 128.328L25.9993 127.669L25.2562 127.003L24.522 126.33L23.7969 125.65L23.0811 124.964L22.3749 124.271L21.6782 123.571L20.9914 122.865L20.3145 122.153L19.6478 121.435L18.9914 120.711L18.3454 119.981L17.7101 119.245L17.0855 118.504L16.4718 117.758L15.8692 117.006L15.2777 116.249L14.6977 115.488L14.1291 114.721L13.5721 113.95L13.0269 113.175L12.4936 112.395L11.9723 111.612L11.4631 110.824L10.9662 110.033L10.4816 109.238L10.0096 108.439L9.55015 107.638L9.10342 106.833L8.6695 106.026L8.24851 105.215L7.84054 104.403L7.44569 103.588L7.06405 102.77L6.69571 101.951L6.34075 101.13L5.99927 100.308L5.67133 99.4838L5.35703 98.6586L5.05642 97.8324L4.76958 97.0053L4.49657 96.1776L4.23746 95.3495L3.99231 94.5211L3.76116 93.6927L3.54408 92.8643L3.34112 92.0363L3.15231 91.2089L2.9777 90.3821L2.81732 89.5563L2.67122 88.7316L2.53941 87.9082L2.42194 87.0863L2.31881 86.2661L2.23006 85.4478L2.15569 84.6317L2.09573 83.8178L2.05017 83.0064L2.01903 82.1978L2.00231 81.392L2 80.5894L2.0121 79.79L2.0386 78.9941L2.07949 78.2019L2.13475 77.4136L2.20436 76.6294L2.2883 75.8494L2.38654 75.0739L2.49905 74.3031L2.6258 73.5372L2.76675 72.7762L2.92185 72.0205L3.09107 71.2703L3.27436 70.5256L3.47165 69.7868L3.68291 69.054L3.90807 68.3273L4.14706 67.607L4.39983 66.8932L4.6663 66.1862L4.9464 65.486L5.24006 64.793L5.5472 64.1072L5.86773 63.4288L6.20157 62.7581L6.54864 62.0951L6.90883 61.4401L7.28206 60.7932L7.66823 60.1546L8.06723 59.5245L8.47896 58.9029L8.90332 58.2902L9.34019 57.6863L9.78947 57.0916L10.251 56.5061L10.7247 55.93L11.2105 55.3635L11.7082 54.8066L12.2177 54.2596L12.7388 53.7226L13.2714 53.1957L13.8155 52.6791L14.3708 52.1728L14.9372 51.6771L15.5146 51.1921L16.1028 50.7178L16.7017 50.2545L17.3111 49.8022L17.9308 49.361L18.5608 48.9311L19.2008 48.5126L19.8508 48.1056L20.5104 47.7102L21.1796 47.3265L21.8583 46.9546L22.5461 46.5947L23.243 46.2467L23.9488 45.9108L24.6634 45.5871L25.3864 45.2757L26.1179 44.9766L26.8575 44.69L27.6051 44.4159L28.3605 44.1544L29.1235 43.9055L29.894 43.6693L30.6718 43.446L31.4566 43.2355L32.2484 43.0379L33.0468 42.8532L33.8517 42.6816L34.6629 42.523L35.4802 42.3775L36.3034 42.2451L37.1324 42.1259L37.9668 42.02L38.8066 41.9272L39.6515 41.8477L40.5013 41.7815L41.3559 41.7286L42.215 41.6891L43.0783 41.6628L43.9458 41.6499L44.8173 41.6504L45.6924 41.6641L46.571 41.6912L47.453 41.7317L48.338 41.7855L49.2259 41.8526L50.1166 41.933L51.0097 42.0266L51.9051 42.1335L52.8026 42.2537L53.7019 42.387L54.603 42.5335L55.5055 42.6931L56.4093 42.8658L57.3141 43.0515L58.2199 43.2502L59.1262 43.4619L60.0331 43.6864L60.9402 43.9237L61.8474 44.1738L62.7544 44.4366L63.6611 44.712L64.5673 45L65.4728 45.3004L66.3774 45.6133L67.2808 45.9384L68.183 46.2758L69.0837 46.6253L69.9826 46.9868L70.8797 47.3603L71.7748 47.7457L72.6676 48.1428L73.558 48.5516L74.4458 48.9719L75.3308 49.4036L76.2128 49.8466L77.0917 50.3008L77.9672 50.7661L78.8393 51.2423L79.7077 51.7294L80.5722 52.2272L81.4328 52.7355L82.2891 53.2543L83.1412 53.7833L83.9887 54.3225L84.8316 54.8717L85.6696 55.4308L86.5027 55.9996L87.3306 56.5779L88.1533 57.1657L88.9706 57.7627L89.7822 58.3688L90.5882 58.9838L91.3883 59.6077L92.1824 60.2401L92.9703 60.881L93.752 61.5301L94.5273 62.1874L95.2961 62.8525L96.0582 63.5255L96.8135 64.206L97.562 64.8939L98.3034 65.589L99.0377 66.2911L99.7647 67.0001L100.484 67.7158L101.197 68.4379L101.901 69.1663L102.598 69.9008L103.288 70.6411L103.969 71.3872L104.643 72.1388L105.308 72.8957L105.966 73.6577L106.615 74.4246L107.256 75.1962L107.888 75.9723L108.512 76.7527L109.128 77.5372L109.735 78.3256L110.334 79.1177L110.924 79.9132L111.505 80.7121L112.077 81.514L112.641 82.3187L113.195 83.1261L113.741 83.936L114.278 84.748L114.806 85.5621L115.324 86.378L115.834 87.1954L116.335 88.0143L116.826 88.8343L117.309 89.6552L117.782 90.477L118.246 91.2992L118.701 92.1218L119.147 92.9444L119.584 93.767L120.012 94.5893L120.43 95.411L120.839 96.232L121.24 97.0521L121.631 97.871L122.013 98.6886L122.386 99.5046L122.75 100.319L123.104 101.131L123.45 101.941L123.787 102.749L124.115 103.554L124.434 104.356L124.745 105.155L125.046 105.951L125.339 106.744L125.623 107.533L125.899 108.318L126.166 109.1L126.424 109.877L126.675 110.65L126.916 111.418L127.15 112.181L127.375 112.94L127.592 113.693L127.801 114.441L128.002 115.184L128.196 115.921L128.381 116.652L128.559 117.377L128.729 118.096L128.892 118.808L129.047 119.514L129.195 120.213L129.336 120.906L129.47 121.591L129.597 122.269L129.717 122.94L129.83 123.603L129.937 124.258L130.037 124.906L130.131 125.546L130.219 126.178L130.3 126.801L130.376 127.416L130.445 128.022L130.509 128.62L130.568 129.209L130.621 129.789L130.669 130.36L130.711 130.922L130.749 131.475L130.781 132.018L130.809 132.551L130.833 133.075L130.852 133.589L130.867 134.093L130.878 134.588L130.884 135.072L130.887 135.546L130.887 136.01L130.883 136.463L130.875 136.906L130.865 137.339L130.851 137.76L130.835 138.172L130.816 138.572L130.795 138.962L130.771 139.34L130.746 139.708L130.718 140.065L130.688 140.411L130.657 140.745L130.625 141.069L130.591 141.381L130.556 141.682L130.52 141.972L130.484 142.25L130.447 142.517L130.409 142.772L130.371 143.017L130.334 143.249L130.296 143.471L130.259 143.68L130.222 143.879L130.186 144.066L130.151 144.241L130.117 144.405L130.084 144.557L130.052 144.698L130.022 144.827L129.993 144.945L129.967 145.052L129.943 145.147L129.92 145.231L129.901 145.303L129.884 145.364L129.869 145.414L129.858 145.452L129.85 145.479L129.845 145.496L129.843 145.5L129.845 145.494L129.851 145.477L129.861 145.449L129.874 145.41L129.892 145.36L129.915 145.3L129.942 145.229L129.974 145.147L130.011 145.054L130.053 144.952L130.1 144.838L130.152 144.715L130.21 144.581L130.273 144.438L130.343 144.284L130.418 144.12L130.499 143.947L130.587 143.764L130.681 143.571L130.781 143.369L130.889 143.158L131.003 142.937L131.123 142.707L131.251 142.469L131.386 142.221L131.528 141.965L131.678 141.7L131.835 141.427L132 141.145L132.172 140.855L132.353 140.557L132.541 140.252L132.738 139.938L132.942 139.617L133.155 139.288L133.376 138.953L133.606 138.61L133.844 138.26L134.091 137.903L134.347 137.54L134.611 137.17L134.885 136.793L135.167 136.411L135.458 136.023L135.759 135.628L136.068 135.229L136.387 134.823L136.715 134.413L137.053 133.997L137.4 133.576L137.757 133.151L138.123 132.721L138.498 132.287L138.883 131.848L139.278 131.405L139.683 130.959L140.097 130.509L140.521 130.055L140.955 129.598L141.398 129.139L141.852 128.676L142.315 128.21L142.788 127.742L143.271 127.272L143.764 126.8L144.266 126.325L144.779 125.849L145.301 125.372L145.833 124.893L146.375 124.413L146.927 123.932L147.489 123.45L148.061 122.968L148.642 122.486L149.233 122.003L149.833 121.52L150.444 121.038L151.064 120.556L151.693 120.075L152.332 119.594L152.981 119.115L153.639 118.637L154.306 118.16L154.983 117.685L155.669 117.212L156.364 116.74L157.068 116.271L157.782 115.805L158.504 115.341L159.235 114.879L159.975 114.421L160.724 113.966L161.481 113.514L162.247 113.065L163.022 112.621L163.804 112.18L164.595 111.743L165.394 111.311L166.201 110.883L167.016 110.46L167.839 110.041L168.67 109.627L169.508 109.219L170.354 108.816L171.206 108.418L172.067 108.026L172.934 107.64L173.808 107.26L174.689 106.886L175.576 106.518L176.47 106.157L177.371 105.802L178.277 105.454L179.19 105.113L180.109 104.779L181.033 104.452L181.963 104.133L182.898 103.821L183.839 103.517L184.785 103.22L185.736 102.932L186.691 102.651L187.651 102.379L188.616 102.115L189.585 101.86L190.558 101.613L191.535 101.374L192.515 101.145L193.499 100.924L194.487 100.713L195.477 100.51L196.471 100.317L197.467 100.133L198.466 99.9586L199.467 99.7936L200.471 99.6383L201.477 99.4927L202.484 99.3569L203.493 99.2309L204.503 99.1149L205.515 99.009L206.527 98.9132L207.541 98.8276L208.555 98.7522L209.569 98.6871L210.584 98.6325L211.598 98.5882L212.613 98.5545L213.626 98.5313L214.64 98.5187L215.652 98.5167L216.663 98.5254L217.673 98.5448L218.682 98.575L219.688 98.6159L220.693 98.6677L221.696 98.7303L222.696 98.8038L223.694 98.8881L224.689 98.9834L225.681 99.0895L226.67 99.2065L227.655 99.3345L228.637 99.4733L229.614 99.6231L230.588 99.7838L231.558 99.9553L232.523 100.138L233.483 100.331L234.439 100.535L235.389 100.75L236.334 100.976L237.273 101.213L238.207 101.46L239.135 101.718L240.056 101.986L240.971 102.266L241.88 102.555L242.782 102.856L243.677 103.166L244.564 103.487L245.445 103.819L246.317 104.161L247.182 104.513L248.039 104.875L248.888 105.247L249.728 105.629L250.56 106.021L251.383 106.423L252.197 106.834L253.003 107.256L253.798 107.687L254.585 108.127L255.361 108.577L256.128 109.035L256.885 109.504L257.631 109.981L258.367 110.467L259.093 110.962L259.808 111.465L260.512 111.978L261.205 112.498L261.887 113.027L262.558 113.565L263.217 114.11L263.864 114.664L264.499 115.225L265.123 115.794L265.734 116.37L266.334 116.954L266.92 117.546L267.495 118.144L268.056 118.749L268.605 119.362L269.141 119.981L269.664 120.606L270.173 121.238L270.67 121.876L271.153 122.52L271.622 123.17L272.078 123.826L272.52 124.487L272.948 125.154L273.363 125.826L273.763 126.503L274.149 127.185L274.521 127.872L274.878 128.563L275.222 129.258L275.55 129.958L275.864 130.662L276.164 131.37L276.449 132.081L276.719 132.796L276.974 133.514L277.214 134.235L277.439 134.959L277.65 135.686L277.845 136.415L278.025 137.147L278.19 137.881L278.34 138.617L278.474 139.354L278.593 140.093L278.697 140.834L278.786 141.576L278.86 142.319L278.918 143.062L278.96 143.807L278.988 144.551L278.999 145.296L279 145.501Z" stroke="#F5EBEB" stroke-width="3"/>
</svg>
