<svg width="480" height="297" viewBox="0 0 480 297" fill="none" xmlns="http://www.w3.org/2000/svg">
<path d="M100.176 255.528L79.44 262.536V281.544L100.176 288.936V281.736H102V296.424H100.176V291.912L34.224 267.432V259.56L100.176 235.368V230.952H102V262.344H100.176V255.528ZM52.176 271.656L77.328 280.68V263.304L52.176 271.656ZM81.552 209.109C87.44 209.109 91.952 208.117 95.088 206.133C98.224 204.085 99.792 200.437 99.792 195.189C99.792 189.941 98.16 185.909 94.896 183.093C91.632 180.277 86.672 178.869 80.016 178.869H36.624V185.109H34.8V171.093H36.624V176.373H79.344C87.28 176.373 93.2 178.133 97.104 181.653C101.008 185.173 102.96 191.413 102.96 200.373C102.96 209.269 101.104 216.085 97.392 220.821C93.68 225.493 87.312 227.829 78.288 227.829H36.624L36.624 233.109H34.8L34.8 202.869H36.624V209.109H81.552ZM68.016 138.106V143.194H100.176V136.954H102V168.154H100.176V161.914H36.624V168.154H34.8V139.162C34.8 130.842 35.248 124.954 36.144 121.498C36.976 117.978 38 115.514 39.216 114.106C41.712 111.034 45.68 109.498 51.12 109.498C56.56 109.498 60.464 110.842 62.832 113.53C65.136 116.218 66.512 120.314 66.96 125.818H67.248C67.952 120.634 69.488 117.018 71.856 114.97C74.224 112.922 78.192 111.898 83.76 111.898H88.848C92.176 111.898 94.416 111.738 95.568 111.418C96.72 111.034 97.296 110.266 97.296 109.114C97.296 107.962 96.784 107.066 95.76 106.426C94.672 105.722 92.432 105.082 89.04 104.506L89.232 102.874C94.672 103.578 98.32 104.826 100.176 106.618C102.032 108.346 102.96 111.834 102.96 117.082C102.96 122.33 101.744 126.074 99.312 128.314C96.816 130.49 92.176 131.578 85.392 131.578H78.384C74.8 131.578 72.176 132.058 70.512 133.018C68.848 133.914 68.016 135.61 68.016 138.106ZM36.624 143.194H66.192V140.122C66.192 136.474 65.072 133.786 62.832 132.058C60.592 130.266 56.944 129.37 51.888 129.37H49.104C44.048 129.37 40.72 130.234 39.12 131.962C37.456 133.626 36.624 136.314 36.624 140.026V143.194ZM100.176 60.3405L79.44 67.3485V86.3565L100.176 93.7485V86.5485H102V101.236H100.176V96.7245L34.224 72.2445V64.3725L100.176 40.1805V35.7645H102V67.1565H100.176V60.3405ZM52.176 76.4685L77.328 85.4925V68.1165L52.176 76.4685Z" fill="#F5EBEB"/>
<path d="M176.44 123.696C179.576 123.696 181.976 122.192 183.64 119.184C185.368 116.176 186.232 112.464 186.232 108.048C186.232 103.632 184.536 99.152 181.144 94.608C176.28 100.176 169.592 102.96 161.08 102.96C152.568 102.96 145.784 101.52 140.728 98.64C135.736 95.76 133.24 91.216 133.24 85.008C133.24 80.72 134.392 77.264 136.696 74.64C139 72.016 142.872 70.096 148.312 68.88C142.68 63.76 139.864 58.192 139.864 52.176C139.864 46.096 141.976 41.52 146.2 38.448C150.488 35.312 155.8 33.744 162.136 33.744C168.472 33.744 173.208 34.896 176.344 37.2C179.544 39.504 181.144 42.608 181.144 46.512C181.144 53.296 175.992 58.48 165.688 62.064C166.968 62.896 169.304 64.368 172.696 66.48C179.8 71.088 184.824 74.8 187.768 77.616C188.728 73.072 189.272 68.4 189.4 63.6H181.816V61.68H198.52V63.6H191.8C191.672 69.616 191.064 75.024 189.976 79.824C192.728 82.896 194.808 85.84 196.216 88.656C197.624 91.472 198.328 95.024 198.328 99.312C198.328 106.224 195.896 112.4 191.032 117.84C186.168 123.28 180.632 126 174.424 126C170.264 126 167.032 125.136 164.728 123.408C162.424 121.68 161.272 119.472 161.272 116.784C161.272 114.096 162.008 111.984 163.48 110.448C165.016 108.976 166.936 108.24 169.24 108.24C174.36 108.24 176.92 110.544 176.92 115.152C176.92 116.112 176.728 117.264 176.344 118.608H172.984C171.832 122 172.984 123.696 176.44 123.696ZM163.384 100.464C170.168 100.464 175.544 97.84 179.512 92.592C176.568 89.52 172.44 86.192 167.128 82.608C157.976 76.592 152.152 72.496 149.656 70.32C148.696 72.368 148.216 76.528 148.216 82.8C148.216 89.072 149.464 93.584 151.96 96.336C154.456 99.088 158.264 100.464 163.384 100.464ZM161.656 35.76C159.224 35.76 157.144 36.528 155.416 38.064C153.688 39.536 152.824 41.904 152.824 45.168C152.824 48.432 153.592 51.12 155.128 53.232C156.664 55.344 159.608 57.904 163.96 60.912C166.648 59.504 168.312 57.808 168.952 55.824C169.656 53.84 170.008 50.928 170.008 47.088C170.008 39.536 167.224 35.76 161.656 35.76Z" fill="#D5B4B4"/>
<path d="M262.2 100.944C265.4 100.944 268.216 100.08 270.648 98.352C273.144 96.624 274.392 94.032 274.392 90.576C274.392 87.056 273.048 84.368 270.36 82.512C267.736 80.656 263.96 79.056 259.032 77.712C254.168 76.304 250.616 75.088 248.376 74.064C246.2 73.04 244.12 71.696 242.136 70.032C238.168 66.704 236.184 61.552 236.184 54.576C236.184 48.88 238.2 43.984 242.232 39.888C246.328 35.792 251.896 33.744 258.936 33.744C262.328 33.744 265.848 34.256 269.496 35.28C273.208 36.24 275.512 36.72 276.408 36.72C277.304 36.72 278.104 36.08 278.808 34.8H279.864L280.536 54.192H279C275.928 48.624 272.696 44.176 269.304 40.848C265.976 37.456 262.328 35.76 258.36 35.76C254.456 35.76 251.416 36.688 249.24 38.544C247.064 40.336 245.976 42.768 245.976 45.84C245.976 48.848 247.256 51.184 249.816 52.848C252.44 54.448 255.64 55.76 259.416 56.784C263.192 57.808 265.656 58.512 266.808 58.896C268.024 59.28 269.496 59.824 271.224 60.528C273.016 61.168 274.456 61.872 275.544 62.64C276.696 63.344 277.88 64.272 279.096 65.424C280.376 66.512 281.368 67.728 282.072 69.072C283.8 72.144 284.664 75.792 284.664 80.016C284.664 86.928 282.488 92.496 278.136 96.72C273.848 100.88 268.184 102.96 261.144 102.96C257.496 102.96 253.304 102.48 248.568 101.52C243.896 100.56 241.304 100.08 240.792 100.08C239.896 100.08 239.032 101.04 238.2 102.96H236.856L235.896 80.112H237.528C240.344 85.68 243.928 90.544 248.28 94.704C252.696 98.864 257.336 100.944 262.2 100.944ZM313.172 81.552C313.172 87.44 314.164 91.952 316.148 95.088C318.196 98.224 321.844 99.792 327.092 99.792C332.34 99.792 336.372 98.16 339.188 94.896C342.004 91.632 343.412 86.672 343.412 80.016V36.624H337.172V34.8H351.188V36.624H345.908V79.344C345.908 87.28 344.148 93.2 340.628 97.104C337.108 101.008 330.868 102.96 321.908 102.96C313.012 102.96 306.196 101.104 301.46 97.392C296.788 93.68 294.452 87.312 294.452 78.288V36.624H289.172V34.8H319.412V36.624H313.172V81.552ZM404.477 34.8V36.912L376.061 99.792H379.325C385.085 99.792 390.141 97.968 394.493 94.32C398.909 90.608 402.077 85.36 403.997 78.576H405.725L404.573 102H355.421V100.176L384.125 36.912H380.189C374.493 36.912 370.173 38.16 367.229 40.656C364.285 43.152 360.957 48.272 357.245 56.016H355.517L356.957 34.8H404.477ZM444.8 66.384L458.432 36.336H448.736V34.8H467.648V36.336H461.312L446.816 68.4V100.176H452.672V102H422.24V100.176H428.096V70.224L411.776 36.336H407.264V34.8H437.984V36.336H431.744L444.8 66.384Z" fill="#F5EBEB"/>
</svg>
