<svg width="738" height="22" viewBox="0 0 738 22" fill="none" xmlns="http://www.w3.org/2000/svg">
<path d="M2 2C38.7129 2 38.7129 20 75.4258 20C112.139 20 112.139 2 148.852 2C185.565 2 185.565 20 222.191 20C258.906 20 258.906 2 295.531 2C332.245 2 332.245 20 368.871 20C405.585 20 405.585 2 442.296 2C479.009 2 479.009 20 515.723 20C552.434 20 552.434 2 589.148 2C625.862 2 625.861 20 662.575 20C699.286 20 699.286 2 736 2" stroke="#F5EBEB" stroke-width="3" stroke-miterlimit="10" stroke-linecap="round"/>
</svg>
